# xmcd
#
# Track frame offsets: 
#        150
#        20723
#        38745
#        55085
#        72347
#        94558
#        106926
#        119053
#        136909
#        153690
#
# Disc length: 2260 seconds
#
# Revision: 0
# Processed by: cddbd v1.5.2PL0 Copyright (c) Steve Scherf et al.
# Submitted via: ExactAudioCopy v1.0b3
#
DISCID=8708d20a
DTITLE=Yael Deckelbaum - Ground Zero
DYEAR=2009
DGENRE=Folk/Rock
TTITLE0=100% Light
TTITLE1=Ground Zero
TTITLE2=Beautiful Devil
TTITLE3=Mushrooms
TTITLE4=Alice
TTITLE5=Through and Through
TTITLE6=Mr. Hide
TTITLE7=The Story of My Life
TTITLE8=Come Another Day
TTITLE9=Every Things I Know
EXTD=
EXTT0=
EXTT1=
EXTT2=
EXTT3=
EXTT4=
EXTT5=
EXTT6=
EXTT7=
EXTT8=
EXTT9=
PLAYORDER=
